<svg width="245" height="738" viewBox="0 0 245 738" fill="none" xmlns="http://www.w3.org/2000/svg">
<g filter="url(#filter0_d_2003_9)">
<path d="M196.515 345.662C135.364 363.915 111.452 380.348 90.7354 422.762C108.298 432.229 109.918 440.4 112.729 455C124.047 401.229 139.327 375.704 196.515 345.662Z" fill="url(#paint0_radial_2003_9)" shape-rendering="crispEdges"/>
<path d="M196.515 345.662C135.364 363.915 111.452 380.348 90.7354 422.762C108.298 432.229 109.918 440.4 112.729 455C124.047 401.229 139.327 375.704 196.515 345.662Z" stroke="#22199E" stroke-opacity="0.2" shape-rendering="crispEdges"/>
</g>
<path d="M183.633 142.992V126.586C183.633 113.044 181.615 99.6979 177.578 86.5469C173.672 73.2656 168.594 62.849 162.344 55.2969C148.932 38.8906 129.466 30.6875 103.945 30.6875H101.016C82.2656 30.6875 71.5234 33.8776 68.7891 40.2578C66.9661 44.5547 66.0547 63.1745 66.0547 96.1172V187.328L66.25 193.188C66.25 195.141 66.25 197.094 66.25 199.047L66.6406 210.57L67.2266 222.094C67.2266 229.385 68.6589 234.529 71.5234 237.523C74.5182 240.388 81.3542 241.82 92.0312 241.82H103.164C129.336 241.82 149.062 233.227 162.344 216.039C168.464 208.227 173.542 197.81 177.578 184.789C181.615 171.638 183.633 157.706 183.633 142.992ZM93.0078 0.21875H105.898C146.523 0.21875 177.057 11.612 197.5 34.3984C218.073 57.0547 228.359 89.6068 228.359 132.055V136.742C228.359 156.143 225.69 175.219 220.352 193.969C210.716 227.823 190.534 251.391 159.805 264.672C143.398 271.833 125.43 275.414 105.898 275.414H80.3125C59.0885 275.414 43.9193 273.07 34.8047 268.383C30.1172 265.909 27.7734 258.552 27.7734 246.312L28.5547 220.922V199.828L28.3594 191.234V170.141L28.1641 161.742V140.453L27.9688 132.055C27.9688 129.19 27.9688 126.326 27.9688 123.461L26.9922 73.6562C26.9922 69.6198 26.9922 65.5833 26.9922 61.5469L26.4062 41.0391L26.2109 36.9375V28.7344L26.4062 24.8281C26.4062 14.2812 29.987 7.90104 37.1484 5.6875C48.737 2.04167 67.3568 0.21875 93.0078 0.21875ZM122.305 687.016C120.612 687.016 114.492 698.474 103.945 721.391C93.3984 744.307 85.651 759.477 80.7031 766.898C72.3698 779.398 64.8177 785.648 58.0469 785.648C45.5469 785.648 37.0182 779.203 32.4609 766.312C26.862 750.818 20.026 724.32 11.9531 686.82C4.01042 649.32 0.0390625 626.664 0.0390625 618.852C0.0390625 614.424 1.99219 612.211 5.89844 612.211C14.6224 612.211 22.2396 618.786 28.75 631.938C29.1406 632.719 34.5443 650.818 44.9609 686.234C55.3776 721.651 62.9297 739.359 67.6172 739.359C71.0026 739.359 77.2526 723.734 86.3672 692.484C89.4922 681.807 92.6172 670.154 95.7422 657.523L98.8672 643.656C101.471 632.068 103.099 625.427 103.75 623.734C106.745 615.271 112.93 611.039 122.305 611.039C131.81 611.039 138.06 614.034 141.055 620.023C144.049 625.883 149.648 647.302 157.852 684.281C166.055 721.13 172.305 739.555 176.602 739.555C180.898 739.555 189.362 720.414 201.992 682.133C214.622 643.721 221.263 623.93 221.914 622.758C226.732 614.685 233.047 610.648 240.859 610.648C243.333 610.648 244.57 612.211 244.57 615.336C244.57 624.451 241.641 644.177 235.781 674.516C230.052 704.724 222.695 733.109 213.711 759.672C210.846 768.005 207.331 774.125 203.164 778.031C199.128 781.938 193.268 783.891 185.586 783.891C172.435 783.891 154.857 759.281 132.852 710.062C126.081 694.698 122.565 687.016 122.305 687.016Z" fill="white"/>
<defs>
<filter id="filter0_d_2003_9" x="86.0752" y="345.183" width="114.672" height="117.92" filterUnits="userSpaceOnUse" color-interpolation-filters="sRGB">
<feFlood flood-opacity="0" result="BackgroundImageFix"/>
<feColorMatrix in="SourceAlpha" type="matrix" values="0 0 0 0 0 0 0 0 0 0 0 0 0 0 0 0 0 0 127 0" result="hardAlpha"/>
<feOffset dy="4"/>
<feGaussianBlur stdDeviation="2"/>
<feComposite in2="hardAlpha" operator="out"/>
<feColorMatrix type="matrix" values="0 0 0 0 0 0 0 0 0 0 0 0 0 0 0 0 0 0 0.25 0"/>
<feBlend mode="normal" in2="BackgroundImageFix" result="effect1_dropShadow_2003_9"/>
<feBlend mode="normal" in="SourceGraphic" in2="effect1_dropShadow_2003_9" result="shape"/>
</filter>
<radialGradient id="paint0_radial_2003_9" cx="0" cy="0" r="1" gradientUnits="userSpaceOnUse" gradientTransform="translate(125.969 392.701) rotate(126.834) scale(58.772 51.5563)">
<stop stop-color="#840E72"/>
<stop offset="0.525" stop-color="#712E41"/>
<stop offset="1" stop-color="#22199E"/>
</radialGradient>
</defs>
</svg>
