<svg width="246" height="669" viewBox="0 0 246 669" fill="none" xmlns="http://www.w3.org/2000/svg">
<g filter="url(#filter0_d_2003_9)">
<path d="M188.694 228.662C134.418 246.915 113.194 263.348 94.8066 305.762C110.395 315.229 111.832 323.4 114.328 338C124.373 284.229 137.936 258.704 188.694 228.662Z" fill="url(#paint0_radial_2003_9)" shape-rendering="crispEdges"/>
<path d="M188.694 228.662C134.418 246.915 113.194 263.348 94.8066 305.762C110.395 315.229 111.832 323.4 114.328 338C124.373 284.229 137.936 258.704 188.694 228.662Z" stroke="#22199E" stroke-opacity="0.2" shape-rendering="crispEdges"/>
</g>
<path d="M184.133 25.9922V9.58594C184.133 -3.95573 182.115 -17.3021 178.078 -30.4531C174.172 -43.7344 169.094 -54.151 162.844 -61.7031C149.432 -78.1094 129.966 -86.3125 104.445 -86.3125H101.516C82.7656 -86.3125 72.0234 -83.1224 69.2891 -76.7422C67.4661 -72.4453 66.5547 -53.8255 66.5547 -20.8828V70.3281L66.75 76.1875C66.75 78.1406 66.75 80.0938 66.75 82.0469L67.1406 93.5703L67.7266 105.094C67.7266 112.385 69.1589 117.529 72.0234 120.523C75.0182 123.388 81.8542 124.82 92.5312 124.82H103.664C129.836 124.82 149.562 116.227 162.844 99.0391C168.964 91.2266 174.042 80.8099 178.078 67.7891C182.115 54.638 184.133 40.7057 184.133 25.9922ZM93.5078 -116.781H106.398C147.023 -116.781 177.557 -105.388 198 -82.6016C218.573 -59.9453 228.859 -27.3932 228.859 15.0547V19.7422C228.859 39.1432 226.19 58.2188 220.852 76.9688C211.216 110.823 191.034 134.391 160.305 147.672C143.898 154.833 125.93 158.414 106.398 158.414H80.8125C59.5885 158.414 44.4193 156.07 35.3047 151.383C30.6172 148.909 28.2734 141.552 28.2734 129.312L29.0547 103.922V82.8281L28.8594 74.2344V53.1406L28.6641 44.7422V23.4531L28.4688 15.0547C28.4688 12.1901 28.4688 9.32552 28.4688 6.46094L27.4922 -43.3438C27.4922 -47.3802 27.4922 -51.4167 27.4922 -55.4531L26.9062 -75.9609L26.7109 -80.0625V-88.2656L26.9062 -92.1719C26.9062 -102.719 30.487 -109.099 37.6484 -111.312C49.237 -114.958 67.8568 -116.781 93.5078 -116.781ZM122.805 570.016C121.112 570.016 114.992 581.474 104.445 604.391C93.8984 627.307 86.151 642.477 81.2031 649.898C72.8698 662.398 65.3177 668.648 58.5469 668.648C46.0469 668.648 37.5182 662.203 32.9609 649.312C27.362 633.818 20.526 607.32 12.4531 569.82C4.51042 532.32 0.539062 509.664 0.539062 501.852C0.539062 497.424 2.49219 495.211 6.39844 495.211C15.1224 495.211 22.7396 501.786 29.25 514.938C29.6406 515.719 35.0443 533.818 45.4609 569.234C55.8776 604.651 63.4297 622.359 68.1172 622.359C71.5026 622.359 77.7526 606.734 86.8672 575.484C89.9922 564.807 93.1172 553.154 96.2422 540.523L99.3672 526.656C101.971 515.068 103.599 508.427 104.25 506.734C107.245 498.271 113.43 494.039 122.805 494.039C132.31 494.039 138.56 497.034 141.555 503.023C144.549 508.883 150.148 530.302 158.352 567.281C166.555 604.13 172.805 622.555 177.102 622.555C181.398 622.555 189.862 603.414 202.492 565.133C215.122 526.721 221.763 506.93 222.414 505.758C227.232 497.685 233.547 493.648 241.359 493.648C243.833 493.648 245.07 495.211 245.07 498.336C245.07 507.451 242.141 527.177 236.281 557.516C230.552 587.724 223.195 616.109 214.211 642.672C211.346 651.005 207.831 657.125 203.664 661.031C199.628 664.938 193.768 666.891 186.086 666.891C172.935 666.891 155.357 642.281 133.352 593.062C126.581 577.698 123.065 570.016 122.805 570.016Z" fill="white"/>
<defs>
<filter id="filter0_d_2003_9" x="90.1746" y="228.188" width="102.774" height="117.904" filterUnits="userSpaceOnUse" color-interpolation-filters="sRGB">
<feFlood flood-opacity="0" result="BackgroundImageFix"/>
<feColorMatrix in="SourceAlpha" type="matrix" values="0 0 0 0 0 0 0 0 0 0 0 0 0 0 0 0 0 0 127 0" result="hardAlpha"/>
<feOffset dy="4"/>
<feGaussianBlur stdDeviation="2"/>
<feComposite in2="hardAlpha" operator="out"/>
<feColorMatrix type="matrix" values="0 0 0 0 0 0 0 0 0 0 0 0 0 0 0 0 0 0 0.25 0"/>
<feBlend mode="normal" in2="BackgroundImageFix" result="effect1_dropShadow_2003_9"/>
<feBlend mode="normal" in="SourceGraphic" in2="effect1_dropShadow_2003_9" result="shape"/>
</filter>
<radialGradient id="paint0_radial_2003_9" cx="0" cy="0" r="1" gradientUnits="userSpaceOnUse" gradientTransform="translate(126.079 275.701) rotate(123.617) scale(56.4862 47.6117)">
<stop stop-color="#840E72"/>
<stop offset="0.525" stop-color="#712E41"/>
<stop offset="1" stop-color="#22199E"/>
</radialGradient>
</defs>
</svg>
