<svg width="548" height="529" viewBox="0 0 548 529" fill="none" xmlns="http://www.w3.org/2000/svg">
<g filter="url(#filter0_d_2003_9)">
<path d="M514 108C315.713 176.782 238.176 238.701 171 398.525C227.95 434.195 233.2 464.984 242.317 520C279.017 317.385 328.564 221.203 514 108Z" fill="url(#paint0_radial_2003_9)" shape-rendering="crispEdges"/>
<path d="M514 108C315.713 176.782 238.176 238.701 171 398.525C227.95 434.195 233.2 464.984 242.317 520C279.017 317.385 328.564 221.203 514 108Z" stroke="#22199E" stroke-opacity="0.2" shape-rendering="crispEdges"/>
</g>
<path d="M191.578 276.992V260.586C191.578 247.044 189.56 233.698 185.523 220.547C181.617 207.266 176.539 196.849 170.289 189.297C156.878 172.891 137.411 164.688 111.891 164.688H108.961C90.2109 164.688 79.4688 167.878 76.7344 174.258C74.9115 178.555 74 197.174 74 230.117V321.328L74.1953 327.188C74.1953 329.141 74.1953 331.094 74.1953 333.047L74.5859 344.57L75.1719 356.094C75.1719 363.385 76.6042 368.529 79.4688 371.523C82.4635 374.388 89.2995 375.82 99.9766 375.82H111.109C137.281 375.82 157.008 367.227 170.289 350.039C176.409 342.227 181.487 331.81 185.523 318.789C189.56 305.638 191.578 291.706 191.578 276.992ZM100.953 134.219H113.844C154.469 134.219 185.003 145.612 205.445 168.398C226.018 191.055 236.305 223.607 236.305 266.055V270.742C236.305 290.143 233.635 309.219 228.297 327.969C218.661 361.823 198.479 385.391 167.75 398.672C151.344 405.833 133.375 409.414 113.844 409.414H88.2578C67.0339 409.414 51.8646 407.07 42.75 402.383C38.0625 399.909 35.7188 392.552 35.7188 380.312L36.5 354.922V333.828L36.3047 325.234V304.141L36.1094 295.742V274.453L35.9141 266.055C35.9141 263.19 35.9141 260.326 35.9141 257.461L34.9375 207.656C34.9375 203.62 34.9375 199.583 34.9375 195.547L34.3516 175.039L34.1562 170.938V162.734L34.3516 158.828C34.3516 148.281 37.9323 141.901 45.0938 139.688C56.6823 136.042 75.3021 134.219 100.953 134.219ZM402.711 301.016C401.018 301.016 394.898 312.474 384.352 335.391C373.805 358.307 366.057 373.477 361.109 380.898C352.776 393.398 345.224 399.648 338.453 399.648C325.953 399.648 317.424 393.203 312.867 380.312C307.268 364.818 300.432 338.32 292.359 300.82C284.417 263.32 280.445 240.664 280.445 232.852C280.445 228.424 282.398 226.211 286.305 226.211C295.029 226.211 302.646 232.786 309.156 245.938C309.547 246.719 314.951 264.818 325.367 300.234C335.784 335.651 343.336 353.359 348.023 353.359C351.409 353.359 357.659 337.734 366.773 306.484C369.898 295.807 373.023 284.154 376.148 271.523L379.273 257.656C381.878 246.068 383.505 239.427 384.156 237.734C387.151 229.271 393.336 225.039 402.711 225.039C412.216 225.039 418.466 228.034 421.461 234.023C424.456 239.883 430.055 261.302 438.258 298.281C446.461 335.13 452.711 353.555 457.008 353.555C461.305 353.555 469.768 334.414 482.398 296.133C495.029 257.721 501.669 237.93 502.32 236.758C507.138 228.685 513.453 224.648 521.266 224.648C523.74 224.648 524.977 226.211 524.977 229.336C524.977 238.451 522.047 258.177 516.188 288.516C510.458 318.724 503.102 347.109 494.117 373.672C491.253 382.005 487.737 388.125 483.57 392.031C479.534 395.938 473.674 397.891 465.992 397.891C452.841 397.891 435.263 373.281 413.258 324.062C406.487 308.698 402.971 301.016 402.711 301.016Z" fill="white"/>
<defs>
<filter id="filter0_d_2003_9" x="166.374" y="107.528" width="351.886" height="420.562" filterUnits="userSpaceOnUse" color-interpolation-filters="sRGB">
<feFlood flood-opacity="0" result="BackgroundImageFix"/>
<feColorMatrix in="SourceAlpha" type="matrix" values="0 0 0 0 0 0 0 0 0 0 0 0 0 0 0 0 0 0 127 0" result="hardAlpha"/>
<feOffset dy="4"/>
<feGaussianBlur stdDeviation="2"/>
<feComposite in2="hardAlpha" operator="out"/>
<feColorMatrix type="matrix" values="0 0 0 0 0 0 0 0 0 0 0 0 0 0 0 0 0 0 0.25 0"/>
<feBlend mode="normal" in2="BackgroundImageFix" result="effect1_dropShadow_2003_9"/>
<feBlend mode="normal" in="SourceGraphic" in2="effect1_dropShadow_2003_9" result="shape"/>
</filter>
<radialGradient id="paint0_radial_2003_9" cx="0" cy="0" r="1" gradientUnits="userSpaceOnUse" gradientTransform="translate(285.25 285.25) rotate(122.805) scale(210.881 175.563)">
<stop stop-color="#840E72"/>
<stop offset="0.525" stop-color="#712E41"/>
<stop offset="1" stop-color="#22199E"/>
</radialGradient>
</defs>
</svg>
