<svg width="194" height="161" viewBox="0 0 194 161" fill="none" xmlns="http://www.w3.org/2000/svg">
<path d="M48 117C86.3211 94.2107 106.415 79.0967 127 26.5C127 26.5 125.5 78 116.5 91C107.5 104 48 117 48 117Z" fill="url(#paint0_linear_2021_24)" stroke="black"/>
<path d="M65.6367 72.0488V69.5879C65.6367 67.5566 65.334 65.5547 64.7285 63.582C64.1426 61.5898 63.3809 60.0273 62.4434 58.8945C60.4316 56.4336 57.5117 55.2031 53.6836 55.2031H53.2441C50.4316 55.2031 48.8203 55.6816 48.4102 56.6387C48.1367 57.2832 48 60.0762 48 65.0176V78.6992L48.0293 79.5781C48.0293 79.8711 48.0293 80.1641 48.0293 80.457L48.0879 82.1855L48.1758 83.9141C48.1758 85.0078 48.3906 85.7793 48.8203 86.2285C49.2695 86.6582 50.2949 86.873 51.8965 86.873H53.5664C57.4922 86.873 60.4512 85.584 62.4434 83.0059C63.3613 81.834 64.123 80.2715 64.7285 78.3184C65.334 76.3457 65.6367 74.2559 65.6367 72.0488ZM52.043 50.6328H53.9766C60.0703 50.6328 64.6504 52.3418 67.7168 55.7598C70.8027 59.1582 72.3457 64.041 72.3457 70.4082V71.1113C72.3457 74.0215 71.9453 76.8828 71.1445 79.6953C69.6992 84.7734 66.6719 88.3086 62.0625 90.3008C59.6016 91.375 56.9062 91.9121 53.9766 91.9121H50.1387C46.9551 91.9121 44.6797 91.5605 43.3125 90.8574C42.6094 90.4863 42.2578 89.3828 42.2578 87.5469L42.375 83.7383V80.5742L42.3457 79.2852V76.1211L42.3164 74.8613V71.668L42.2871 70.4082C42.2871 69.9785 42.2871 69.5488 42.2871 69.1191L42.1406 61.6484C42.1406 61.043 42.1406 60.4375 42.1406 59.832L42.0527 56.7559L42.0234 56.1406V54.9102L42.0527 54.3242C42.0527 52.7422 42.5898 51.7852 43.6641 51.4531C45.4023 50.9062 48.1953 50.6328 52.043 50.6328ZM97.3066 75.6523C97.0527 75.6523 96.1348 77.3711 94.5527 80.8086C92.9707 84.2461 91.8086 86.5215 91.0664 87.6348C89.8164 89.5098 88.6836 90.4473 87.668 90.4473C85.793 90.4473 84.5137 89.4805 83.8301 87.5469C82.9902 85.2227 81.9648 81.248 80.7539 75.623C79.5625 69.998 78.9668 66.5996 78.9668 65.4277C78.9668 64.7637 79.2598 64.4316 79.8457 64.4316C81.1543 64.4316 82.2969 65.418 83.2734 67.3906C83.332 67.5078 84.1426 70.2227 85.7051 75.5352C87.2676 80.8477 88.4004 83.5039 89.1035 83.5039C89.6113 83.5039 90.5488 81.1602 91.916 76.4727C92.3848 74.8711 92.8535 73.123 93.3223 71.2285L93.791 69.1484C94.1816 67.4102 94.4258 66.4141 94.5234 66.1602C94.9727 64.8906 95.9004 64.2559 97.3066 64.2559C98.7324 64.2559 99.6699 64.7051 100.119 65.6035C100.568 66.4824 101.408 69.6953 102.639 75.2422C103.869 80.7695 104.807 83.5332 105.451 83.5332C106.096 83.5332 107.365 80.6621 109.26 74.9199C111.154 69.1582 112.15 66.1895 112.248 66.0137C112.971 64.8027 113.918 64.1973 115.09 64.1973C115.461 64.1973 115.646 64.4316 115.646 64.9004C115.646 66.2676 115.207 69.2266 114.328 73.7773C113.469 78.3086 112.365 82.5664 111.018 86.5508C110.588 87.8008 110.061 88.7188 109.436 89.3047C108.83 89.8906 107.951 90.1836 106.799 90.1836C104.826 90.1836 102.189 86.4922 98.8887 79.1094C97.873 76.8047 97.3457 75.6523 97.3066 75.6523Z" fill="white"/>
<defs>
<linearGradient id="paint0_linear_2021_24" x1="87.5" y1="26.5" x2="87.5" y2="117" gradientUnits="userSpaceOnUse">
<stop stop-color="#E910FC"/>
<stop offset="0.701667" stop-color="#3812F5"/>
<stop offset="1" stop-color="#0912F4"/>
</linearGradient>
</defs>
</svg>
